<svg xmlns="http://www.w3.org/2000/svg" viewBox="1446 459 30 30">
  <defs>
    <style>
      .cls-1 {
        opacity: 0.8;
      }

      .cls-2 {
        fill: #fafafa;
      }
    </style>
  </defs>
  <g id="facebook_1_" data-name="facebook (1)" class="cls-1" transform="translate(1446 459)">
    <path id="Path_997" data-name="Path 997" d="M26.25,0H3.75A3.754,3.754,0,0,0,0,3.75v22.5A3.754,3.754,0,0,0,3.75,30h22.5A3.754,3.754,0,0,0,30,26.25V3.75A3.754,3.754,0,0,0,26.25,0Z"/>
    <path id="Path_998" data-name="Path 998" class="cls-2" d="M206.063,105.375h-4.687v-3.75c0-1.035.84-.937,1.875-.937h1.875V96h-3.75a5.625,5.625,0,0,0-5.625,5.625v3.75H192v4.688h3.75v10.313h5.625V110.063h2.813Z" transform="translate(-180.75 -90.375)"/>
  </g>
</svg>
