<svg xmlns="http://www.w3.org/2000/svg" viewBox="-7461 -2866 28.581 28.581">
  <defs>
    <style>
      .cls-1 {
        opacity: 0.8;
      }

      .cls-2 {
        fill: none;
      }

      .cls-3, .cls-4 {
        stroke: none;
      }

      .cls-4 {
        fill: #0a0a0a;
      }
    </style>
  </defs>
  <g id="Symbol_2" data-name="Symbol 2" transform="translate(-7498 -2949)">
    <g id="Group_1435" data-name="Group 1435" class="cls-1" transform="translate(53 101.14)">
      <path id="Path_790" data-name="Path 790" d="M5.118,12.116S7.084,4.1,5.232,1.891,1.936-.512.688.9-.2,5.566,2.542,4.759,5.118,12.116,5.118,12.116Z" transform="translate(-10.284 -6.177) rotate(-7)"/>
      <path id="Path_791" data-name="Path 791" d="M1.106,16.85S-1.276,6.122.952,3.079,4.982-.46,6.74.34s.77,7.5-2.515,6.415S1.106,16.85,1.106,16.85Z" transform="matrix(0.998, 0.07, -0.07, 0.998, -1.788, -11.659)"/>
      <path id="Path_793" data-name="Path 793" d="M1.671,1.7S.178.35.01,1.506,1.965,3.378,1.965,3.378,5.078.854,3.879.139,1.671,1.7,1.671,1.7Z" transform="translate(-6.333 -9.102) rotate(-14)"/>
      <circle id="Ellipse_65" data-name="Ellipse 65" cx="0.715" cy="0.715" r="0.715" transform="translate(0.434 1.152)"/>
      <circle id="Ellipse_66" data-name="Ellipse 66" cx="0.536" cy="0.536" r="0.536" transform="translate(-0.638 3.295)"/>
      <circle id="Ellipse_67" data-name="Ellipse 67" cx="0.357" cy="0.357" r="0.357" transform="translate(1.506 3.653)"/>
      <g id="Path_993" data-name="Path 993" class="cls-2" transform="translate(-16 -18.14)">
        <path class="cls-3" d="M14.29,0A14.29,14.29,0,1,1,0,14.29,14.29,14.29,0,0,1,14.29,0Z"/>
        <path class="cls-4" d="M 14.290283203125 27.58056259155273 C 17.84025382995605 27.58056259155273 21.17773246765137 26.19813346862793 23.68793296813965 23.68793296813965 C 26.19813346862793 21.17773246765137 27.58056259155273 17.84025382995605 27.58056259155273 14.290283203125 C 27.58056259155273 10.74031352996826 26.19813346862793 7.402832984924316 23.68793296813965 4.892633438110352 C 21.17773246765137 2.382433176040649 17.84025382995605 1.000003218650818 14.290283203125 1.000003218650818 C 10.74031352996826 1.000003218650818 7.402832984924316 2.382433176040649 4.892633438110352 4.892633438110352 C 2.382433176040649 7.402832984924316 1.000003218650818 10.74031352996826 1.000003218650818 14.290283203125 C 1.000003218650818 17.84025382995605 2.382433176040649 21.17773246765137 4.892633438110352 23.68793296813965 C 7.402832984924316 26.19813346862793 10.74031352996826 27.58056259155273 14.290283203125 27.58056259155273 M 14.290283203125 28.58056259155273 C 6.39797306060791 28.58056259155273 3.203125061190804e-06 22.18259239196777 3.203125061190804e-06 14.290283203125 C 3.203125061190804e-06 6.39797306060791 6.39797306060791 3.203125061190804e-06 14.290283203125 3.203125061190804e-06 C 22.18259239196777 3.203125061190804e-06 28.58056259155273 6.39797306060791 28.58056259155273 14.290283203125 C 28.58056259155273 22.18259239196777 22.18259239196777 28.58056259155273 14.290283203125 28.58056259155273 Z"/>
      </g>
    </g>
  </g>
</svg>
