<svg xmlns="http://www.w3.org/2000/svg" viewBox="1374 465 30 17.117">
  <defs>
    <style>
      .cls-1 {
        opacity: 0.8;
      }
    </style>
  </defs>
  <path id="vk_1_" data-name="vk (1)" class="cls-1" d="M14.679,126.969h1.793a1.511,1.511,0,0,0,.818-.358,1.306,1.306,0,0,0,.246-.788s-.036-2.406,1.082-2.76c1.1-.349,2.515,2.325,4.013,3.355a2.838,2.838,0,0,0,1.993.608l4.007-.056s2.1-.129,1.1-1.778a13.375,13.375,0,0,0-2.98-3.447c-2.513-2.333-2.175-1.954.851-5.987,1.843-2.456,2.58-3.957,2.35-4.6-.219-.611-1.575-.45-1.575-.45l-4.508.026a1.031,1.031,0,0,0-.583.1,1.27,1.27,0,0,0-.4.484,26.113,26.113,0,0,1-1.667,3.518c-2.008,3.411-2.813,3.591-3.141,3.379-.763-.493-.572-1.984-.572-3.041,0-3.306.5-4.684-.977-5.04a7.738,7.738,0,0,0-2.106-.21,9.739,9.739,0,0,0-3.743.383c-.514.251-.909.812-.668.844a2.022,2.022,0,0,1,1.331.669,4.343,4.343,0,0,1,.446,2.042s.266,3.891-.621,4.375c-.609.332-1.444-.345-3.235-3.441a28.859,28.859,0,0,1-1.611-3.338,1.332,1.332,0,0,0-.371-.5,1.869,1.869,0,0,0-.694-.279l-4.287.026s-.643.019-.879.3c-.21.249-.017.763-.017.763s3.356,7.851,7.156,11.81a10.3,10.3,0,0,0,7.442,3.39Z" transform="translate(1374 355.076)"/>
</svg>
