<svg xmlns="http://www.w3.org/2000/svg" viewBox="1518 464 30 20.625">
  <defs>
    <style>
      .cls-1 {
        opacity: 0.8;
      }

      .cls-2 {
        fill: #fafafa;
      }
    </style>
  </defs>
  <g id="youtube_1_" data-name="youtube (1)" class="cls-1" transform="translate(1518 384)">
    <path id="Path_999" data-name="Path 999" d="M28.725,81.987c-.814-1.447-1.7-1.714-3.495-1.815C23.434,80.051,18.917,80,15,80s-8.439.051-10.234.171c-1.794.1-2.679.368-3.5,1.817C.431,83.433,0,85.923,0,90.307v.015c0,4.365.431,6.874,1.269,8.3.821,1.447,1.7,1.71,3.5,1.832,1.8.1,6.315.167,10.236.167s8.43-.062,10.228-.165c1.8-.122,2.681-.384,3.5-1.832C29.573,97.2,30,94.689,30,90.324v-.015C30,85.923,29.573,83.433,28.725,81.987Z"/>
    <path id="Path_1000" data-name="Path 1000" class="cls-2" d="M192,171.25V160l9.375,5.625Z" transform="translate(-180.75 -75.313)"/>
  </g>
</svg>
