<svg xmlns="http://www.w3.org/2000/svg" viewBox="-7932 -218.36 25 25.001"><defs><style>.cls-1{fill:#414948}</style></defs><g id="leto" transform="translate(-8090 -717)"><path id="Path_512" data-name="Path 512" class="cls-1" d="M14.778 21.5a6.717 6.717 0 1 1 6.717-6.717 6.724 6.724 0 0 1-6.717 6.717zm0-12.717a6 6 0 1 0 6 6 6.007 6.007 0 0 0-6-6.005z" transform="translate(155.722 496.361)"/><path id="Path_513" data-name="Path 513" class="cls-1" d="M17.283 3.574a.359.359 0 0 1-.359-.359V.359a.359.359 0 0 1 .717 0v2.856a.358.358 0 0 1-.358.359z" transform="translate(153.217 498.64)"/><path id="Path_514" data-name="Path 514" class="cls-1" d="M17.283 33.442a.359.359 0 0 1-.359-.359v-2.856a.359.359 0 0 1 .717 0v2.857a.358.358 0 0 1-.358.358z" transform="translate(153.217 490.198)"/><path id="Path_515" data-name="Path 515" class="cls-1" d="M3.215 17.642H.359a.359.359 0 0 1 0-.717h2.856a.359.359 0 0 1 0 .717z" transform="translate(158 493.856)"/><path id="Path_516" data-name="Path 516" class="cls-1" d="M33.082 17.642h-2.856a.359.359 0 0 1 0-.717h2.857a.359.359 0 1 1 0 .717z" transform="translate(149.559 493.856)"/><path id="Path_517" data-name="Path 517" class="cls-1" d="M7.337 7.693a.36.36 0 0 1-.254-.1L5.063 5.57a.359.359 0 0 1 .507-.507l2.02 2.018a.359.359 0 0 1 0 .507.354.354 0 0 1-.253.105z" transform="translate(156.599 497.238)"/><path id="Path_518" data-name="Path 518" class="cls-1" d="M28.456 28.814a.36.36 0 0 1-.254-.1l-2.02-2.021a.359.359 0 0 1 .507-.507l2.02 2.021a.358.358 0 0 1-.253.612z" transform="translate(150.63 491.27)"/><path id="Path_519" data-name="Path 519" class="cls-1" d="M5.317 28.814a.358.358 0 0 1-.254-.612l2.02-2.021a.359.359 0 0 1 .507.507L5.57 28.71a.36.36 0 0 1-.253.104z" transform="translate(156.599 491.27)"/><path id="Path_520" data-name="Path 520" class="cls-1" d="M26.436 7.693a.358.358 0 0 1-.254-.612L28.2 5.063a.359.359 0 0 1 .507.507l-2.02 2.019a.354.354 0 0 1-.251.104z" transform="translate(150.63 497.238)"/></g></svg>