<?xml version="1.0" encoding="iso-8859-1"?>
<!-- Generator: Adobe Illustrator 19.0.0, SVG Export Plug-In . SVG Version: 6.00 Build 0)  -->
<svg version="1.1" id="Layer_1" xmlns="http://www.w3.org/2000/svg" xmlns:xlink="http://www.w3.org/1999/xlink" x="0px" y="0px"
	 viewBox="0 0 245.5 245.5" style="enable-background:new 0 0 245.5 245.5;" xml:space="preserve">
<g>
	<g>
		<g>
			<path d="M204.188,181.292c-1.104,0-2,0.896-2,2c0,11.824-32.772,24.484-81.556,24.484s-81.552-12.66-81.552-24.484
				c0-1.104-0.896-2-2-2s-2,0.896-2,2c0,17.832,43.5,28.484,85.552,28.484s85.556-10.656,85.556-28.484
				C206.188,182.188,205.292,181.292,204.188,181.292z"/>
			<path d="M244.756,126.84c-0.896-0.496-14.752-7.94-33.296-11.048c6.972-12.66,9.7-24.012,9.896-24.864l-1.288-2.336
				c-0.844-0.296-12.364-4.2-27.244-4.956c1.152-17.632-2.532-31.644-2.792-32.596l-2.46-1.4c-1.1,0.304-18.704,5.304-35.828,17.452
				c-10.244-19.376-26.476-32.576-27.472-33.368h-2.492c-1.012,0.804-17.72,14.396-27.928,34.252
				C76.344,55.172,57.896,49.952,56.768,49.644l-2.46,1.4c-0.264,0.964-4.064,15.364-2.752,33.352
				c-16.592,0.376-29.884,5.148-30.772,5.48l-1.232,2.416c0.232,0.82,3.46,11.932,11.008,24.108
				c-16.772,3.396-28.972,9.98-29.808,10.444L0,129.62c0.828,1.388,20.668,34.08,54.24,43.152c2.088,0.564,4.176,0.988,6.26,1.352
				c1.72,10.96,31.676,17.488,60.748,17.488c28.644,0,58.156-6.332,60.668-17.004c3.1-0.408,6.22-0.996,9.344-1.84
				c33.572-9.072,53.412-41.764,54.24-43.152L244.756,126.84z M192.464,87.724c11.344,0.564,20.768,2.98,24.52,4.092
				c-1.08,3.828-4.14,13.296-9.88,23.348c-7.052-0.868-14.636-1.02-22.388,0.084C189.264,106.092,191.516,96.572,192.464,87.724z
				 M186.648,54.112c1.764,8.108,7.084,39.132-8.156,64.22c-15.32,25.22-46.828,36.832-55.028,39.496
				c-1.764-8.108-7.084-39.132,8.156-64.216C146.94,68.388,178.448,56.776,186.648,54.112z M121.592,87.708
				c0.516-0.048,1.02-0.124,1.552-0.124c0.496,0,0.972,0.06,1.452,0.1l-3.2,14.596c-0.6-1.54-1.268-3.072-1.988-4.596
				L121.592,87.708z M118.04,94.916c-0.6-1.136-1.22-2.268-1.9-3.384c-0.384-0.636-0.832-1.212-1.232-1.828
				c1.42-0.776,2.98-1.348,4.648-1.7L118.04,94.916z M126.48,87.936c1.208,0.232,2.372,0.56,3.46,1.02
				c-0.576,0.86-1.192,1.68-1.736,2.576c-1.716,2.824-3.112,5.712-4.368,8.62l2.66-12.12C126.5,87.996,126.476,87.968,126.48,87.936
				z M123.028,37.904c4.048,3.504,17.016,15.484,25.444,31.608c-6.332,4.872-12.416,10.768-17.432,17.816
				c-2.376-1.06-5.052-1.668-7.896-1.668c-3.444,0-6.6,0.936-9.308,2.452c-4.792-6.924-10.612-12.764-16.732-17.628
				C105.508,53.872,118.9,41.476,123.028,37.904z M57.696,54.108c8.2,2.664,39.688,14.248,55.024,39.5
				c3.412,5.62,5.728,11.532,7.344,17.428c-5.196,19.704-2.408,38.568-0.816,46.244c-10.096-3.476-38.932-15.124-53.404-38.952
				C50.628,93.276,55.936,62.224,57.696,54.108z M23.984,93.02c4.172-1.316,15.128-4.28,27.98-4.54
				c0.988,8.572,3.2,17.736,7.548,26.568c-8.592-1.072-16.98-0.66-24.604,0.552C28.732,105.996,25.256,96.808,23.984,93.02z
				 M55.292,168.904c-27.588-7.452-46.016-32.564-50.684-39.532c6.964-3.384,31.82-14.14,57.288-9.94
				c0.188,0.324,0.336,0.656,0.532,0.98c9.704,15.972,25.132,26.56,37.848,33.116c-20.892,8.5-43.576,7.936-60.028-1.708
				c-0.68-0.404-1.544-0.168-1.94,0.504c-0.396,0.676-0.168,1.544,0.504,1.94c9.18,5.38,20.188,8.076,31.756,8.076
				c10.86,0,22.208-2.404,33.004-7.152c5.744,2.76,10.692,4.644,13.988,5.772C108.356,165.244,81.424,175.968,55.292,168.904z
				 M121.256,189.336c-33.04,0-55.736-7.428-58.276-14.828c3.712,0.52,7.392,0.78,10.992,0.78c25.612,0,47.196-11.564,48.788-12.436
				c1.588,0.872,23.172,12.436,48.788,12.436c2.608,0,5.268-0.16,7.944-0.424C176.34,182.148,153.76,189.336,121.256,189.336z
				 M190.224,168.904c-26.656,7.208-54.124-4.096-62.768-8.184c11.384-3.98,39.624-15.896,54.456-40.312
				c0.144-0.236,0.252-0.48,0.392-0.72c25.936-4.82,51.528,6.236,58.604,9.68C236.248,136.336,217.848,161.44,190.224,168.904z"/>
			<path d="M17.256,130.656c-0.448-0.64-1.332-0.8-1.972-0.352c-0.64,0.448-0.8,1.332-0.352,1.972
				c1.608,2.308,3.368,4.536,5.228,6.624c0.28,0.316,0.668,0.476,1.06,0.476c0.336,0,0.672-0.12,0.944-0.36
				c0.584-0.52,0.636-1.416,0.116-2C20.488,135.012,18.8,132.872,17.256,130.656z"/>
			<path d="M35.956,149.076c-3.684-2.556-7.14-5.408-10.272-8.484c-0.556-0.548-1.456-0.54-2.004,0.02
				c-0.548,0.56-0.54,1.456,0.02,2.004c3.244,3.184,6.824,6.144,10.636,8.788c0.248,0.172,0.528,0.252,0.808,0.252
				c0.448,0,0.892-0.212,1.168-0.608C36.76,150.404,36.6,149.52,35.956,149.076z"/>
			<path d="M191.444,180.732c0-0.628-0.508-1.136-1.136-1.136s-1.136,0.508-1.136,1.136c0,8.86-27.292,18.348-67.92,18.348
				s-67.92-9.488-67.92-18.348c0-0.628-0.508-1.136-1.136-1.136c-0.628,0-1.136,0.508-1.136,1.136
				c0,11.56,30.832,20.616,70.192,20.616S191.444,192.292,191.444,180.732z"/>
		</g>
	</g>
</g>
<g>
</g>
<g>
</g>
<g>
</g>
<g>
</g>
<g>
</g>
<g>
</g>
<g>
</g>
<g>
</g>
<g>
</g>
<g>
</g>
<g>
</g>
<g>
</g>
<g>
</g>
<g>
</g>
<g>
</g>
</svg>
