<svg xmlns="http://www.w3.org/2000/svg" viewBox="-7834 -218.36 18.633 25"><defs><style>.cls-1{fill:#414948}</style></defs><g id="quran-book" transform="translate(-7895.763 -218.36)"><path id="Path_523" data-name="Path 523" class="cls-1" d="M80.177 0H63.686a1.86 1.86 0 0 0-1.923 1.657V23.3a1.706 1.706 0 0 0 1.7 1.7h16.714a.219.219 0 0 0 0-.438 1.264 1.264 0 0 1-.006-2.526.224.224 0 0 0 .225-.219V.219A.219.219 0 0 0 80.177 0zm-.219 1.805H75.2a.219.219 0 0 0 0 .438h4.763v1.31h-2.131a.219.219 0 0 0 0 .438h2.126v14.143h-2.073a.219.219 0 0 0 0 .438h2.073V21.6H63.9v-1.414h4.14a.219.219 0 0 0 0-.438H63.9v-2.9h1.88a.219.219 0 0 0 0-.438H63.9V1.786h1.122a.219.219 0 1 0 0-.438H63.9v-.91h16.058zM62.2 1.657a1.386 1.386 0 0 1 1.266-1.2V21.6a1.7 1.7 0 0 0-1.263.563zM78.511 23.3a1.71 1.71 0 0 0 .539 1.263H63.464a1.265 1.265 0 0 1-1.238-1.014h12.055a.219.219 0 0 0 0-.438H62.215a1.253 1.253 0 0 1 .1-.342h2.789a.219.219 0 1 0 0-.438h-2.449a1.257 1.257 0 0 1 .809-.294H79.05a1.71 1.71 0 0 0-.539 1.263z"/><path id="Path_524" data-name="Path 524" class="cls-1" d="M180.3 133.228a4.376 4.376 0 1 0-4.376-4.376 4.381 4.381 0 0 0 4.376 4.376zm0-8.314a3.938 3.938 0 1 1-3.938 3.938 3.942 3.942 0 0 1 3.938-3.938z" transform="translate(-108.28 -118.06)"/><path id="Path_525" data-name="Path 525" class="cls-1" d="M206.28 158.386a1.652 1.652 0 0 1 .465.906.219.219 0 0 0 .344.142 1.662 1.662 0 0 1 1.939 0 .219.219 0 0 0 .344-.143 1.662 1.662 0 0 1 1.371-1.371.219.219 0 0 0 .142-.344 1.662 1.662 0 0 1 0-1.939.219.219 0 0 0-.142-.344 1.662 1.662 0 0 1-1.371-1.371.219.219 0 0 0-.344-.142 1.662 1.662 0 0 1-1.939 0 .219.219 0 0 0-.344.142 1.662 1.662 0 0 1-1.371 1.371.219.219 0 0 0-.142.344 1.662 1.662 0 0 1 0 1.939.219.219 0 0 0 .142.344 1.651 1.651 0 0 1 .906.466zm-.528-2.733a2.1 2.1 0 0 0 1.348-1.353 2.1 2.1 0 0 0 1.91 0 2.1 2.1 0 0 0 1.351 1.351 2.1 2.1 0 0 0 0 1.91 2.1 2.1 0 0 0-1.351 1.351 2.1 2.1 0 0 0-1.91 0 2.1 2.1 0 0 0-1.351-1.351 2.1 2.1 0 0 0 0-1.91z" transform="translate(-136.035 -145.816)"/><path id="Path_526" data-name="Path 526" class="cls-1" d="M140.521 95.764a4.427 4.427 0 0 0 .243 2.4.219.219 0 0 0 .127.127 5.584 5.584 0 0 0 1.723.341 2.171 2.171 0 0 0 .681-.1 4.427 4.427 0 0 0 1.871 1.527.219.219 0 0 0 .179 0 4.427 4.427 0 0 0 1.871-1.527 2.172 2.172 0 0 0 .681.1 5.583 5.583 0 0 0 1.723-.341.219.219 0 0 0 .127-.127 4.426 4.426 0 0 0 .243-2.4 4.426 4.426 0 0 0 1.528-1.871.219.219 0 0 0 0-.179 4.427 4.427 0 0 0-1.528-1.871 4.427 4.427 0 0 0-.243-2.4.219.219 0 0 0-.127-.127 5.583 5.583 0 0 0-1.723-.341 2.173 2.173 0 0 0-.681.1 4.428 4.428 0 0 0-1.871-1.527.219.219 0 0 0-.179 0 4.428 4.428 0 0 0-1.871 1.527 2.171 2.171 0 0 0-.681-.1 5.583 5.583 0 0 0-1.723.341.219.219 0 0 0-.127.127 4.427 4.427 0 0 0-.243 2.4 4.427 4.427 0 0 0-1.528 1.871.219.219 0 0 0 0 .179 4.427 4.427 0 0 0 1.528 1.871zm.351-3.593a.219.219 0 0 0 .13-.314 3.355 3.355 0 0 1 .138-2.169 5.057 5.057 0 0 1 1.474-.279 1.479 1.479 0 0 1 .7.14.219.219 0 0 0 .314-.13c.188-.625 1.169-1.212 1.632-1.437.463.224 1.444.81 1.632 1.437a.219.219 0 0 0 .314.13 1.479 1.479 0 0 1 .7-.14 5.057 5.057 0 0 1 1.474.279 3.355 3.355 0 0 1 .138 2.169.219.219 0 0 0 .13.314c.625.188 1.212 1.169 1.437 1.632-.224.463-.81 1.444-1.437 1.632a.219.219 0 0 0-.13.314 3.355 3.355 0 0 1-.138 2.169 5.057 5.057 0 0 1-1.474.279 1.479 1.479 0 0 1-.7-.14.219.219 0 0 0-.314.13c-.188.625-1.169 1.212-1.632 1.437-.463-.224-1.444-.81-1.632-1.437a.219.219 0 0 0-.314-.13 1.479 1.479 0 0 1-.7.14 5.058 5.058 0 0 1-1.474-.279 3.355 3.355 0 0 1-.14-2.169.219.219 0 0 0-.13-.314c-.625-.188-1.212-1.169-1.437-1.632.227-.463.814-1.444 1.438-1.631z" transform="translate(-73.231 -83.012)"/><path id="Path_527" data-name="Path 527" class="cls-1" d="M318.336 448.805h2.421a.219.219 0 0 0 0-.438h-2.421a.219.219 0 0 0 0 .438z" transform="translate(-243.141 -425.257)"/><path id="Path_528" data-name="Path 528" class="cls-1" d="M230.732 383.129h-4.25a.219.219 0 1 0 0 .438h4.25a.219.219 0 1 0 0-.438z" transform="translate(-156.021 -363.381)"/><path id="Path_529" data-name="Path 529" class="cls-1" d="M234.833 35.46h2.905a.219.219 0 0 0 0-.438h-2.905a.219.219 0 0 0 0 .438z" transform="translate(-163.942 -33.217)"/><path id="Path_530" data-name="Path 530" class="cls-1" d="M236.963 194.64h2.044a.219.219 0 1 0 0-.438h-2.044a.219.219 0 1 0 0 .438z" transform="translate(-165.962 -184.192)"/><path id="Path_531" data-name="Path 531" class="cls-1" d="M245.093 219.253h-1.345a.219.219 0 1 0 0 .438h1.345a.219.219 0 1 0 0-.438z" transform="translate(-172.397 -207.952)"/></g></svg>