<svg xmlns="http://www.w3.org/2000/svg" viewBox="-7786 -218.36 25.249 25"><g data-name="Group 396"><path data-name="Path 532" d="M-7760.837-217.07l-.909-1.143a.393.393 0 0 0-.554-.067l-.485.385-.063-.08a.393.393 0 1 0-.615.489l.063.08-13.958 11.105a6.8 6.8 0 0 0-1.827 2.221l-1.115 2.165a.659.659 0 0 1-.523.355l-.6.059a1.4 1.4 0 0 0-.938.494l-1.6 1.9a.393.393 0 1 0 .6.505l1.6-1.9a.615.615 0 0 1 .413-.218l.6-.059a1.44 1.44 0 0 0 1.148-.777l1.112-2.161a6.02 6.02 0 0 1 1.11-1.519 3.18 3.18 0 0 1 1.256.558l-.562.447c-1.4 1.114-2.123 2.221-2.145 3.289a2.264 2.264 0 0 0 .272 1.133 2.966 2.966 0 0 0-1.506 1.176l-2.8 4.263-2.211-2.187.891-1.06a.393.393 0 1 0-.6-.505l-1.125 1.337a.392.392 0 0 0 .025.532l2.812 2.78a.392.392 0 0 0 .276.113h.041a.393.393 0 0 0 .287-.175l3.062-4.664a2.183 2.183 0 0 1 1.566-.971.393.393 0 0 0 .21-.686 1.463 1.463 0 0 1-.414-1.065 1.964 1.964 0 0 1 .16-.71 3.2 3.2 0 0 0 .352.02 2.436 2.436 0 0 0 2.078-1.035 1.451 1.451 0 0 0 .069-1.609l5.213-4.145a.393.393 0 0 0 .063-.552l-.118-.148 2.276-1.813a.393.393 0 1 0-.489-.615l-2.276 1.809-.42-.528 9.019-7.17.42.528-5.787 4.6a.393.393 0 1 0 .489.615l6.094-4.844a.392.392 0 0 0 .063-.552zm-15.263 13.972a1.653 1.653 0 0 1-1.329.7 7.161 7.161 0 0 1 1.233-1.214l.181-.144a.648.648 0 0 1-.085.658zm.6-2.076a3.445 3.445 0 0 0-1.17-.675l.922-.733a3.219 3.219 0 0 1 1.3.568zm4.41-3.748l.117.147-2.846 2.263a3.444 3.444 0 0 0-1.17-.675l3.234-2.571z" fill="#414948"/></g></svg>