<?xml version="1.0" encoding="iso-8859-1"?>
<!-- Generator: Adobe Illustrator 18.0.0, SVG Export Plug-In . SVG Version: 6.00 Build 0)  -->
<!DOCTYPE svg PUBLIC "-//W3C//DTD SVG 1.1//EN" "http://www.w3.org/Graphics/SVG/1.1/DTD/svg11.dtd">
<svg version="1.1" id="Capa_1" xmlns="http://www.w3.org/2000/svg" xmlns:xlink="http://www.w3.org/1999/xlink" x="0px" y="0px"
	 viewBox="0 0 460.15 460.15" style="enable-background:new 0 0 460.15 460.15;" xml:space="preserve">
<g>
	<path d="M237.601,332.761c-5.553-3.206-15.284,0.67-23.14,14.275c-2.938,5.087-4.821,10.448-5.304,15.097
		c-0.809,7.778,2.479,10.908,4.511,12.081c1.208,0.697,2.613,1.06,4.155,1.06c5.543-0.001,12.838-4.688,18.984-15.334
		c2.938-5.087,4.821-10.448,5.304-15.097C242.92,337.064,239.633,333.935,237.601,332.761z M234.154,344.016
		c-0.363,3.503-1.922,7.849-4.274,11.923c-5.141,8.905-11.154,11.953-12.212,11.347c-0.147-0.085-0.874-1.244-0.554-4.326
		c0.363-3.503,1.922-7.849,4.274-11.923c4.723-8.18,10.183-11.421,11.858-11.421c0.148,0,0.268,0.025,0.354,0.075
		C233.748,339.775,234.475,340.933,234.154,344.016z"/>
	<path d="M413.347,229.57c-2.031-1.173-6.387-2.456-12.718,2.133c-3.784,2.742-7.485,7.054-10.422,12.141
		c-2.938,5.087-4.82,10.448-5.304,15.096c-0.808,7.779,2.48,10.908,4.512,12.081c0.938,0.542,2.37,1.106,4.264,1.106
		c2.209,0,5.045-0.769,8.454-3.24c3.784-2.742,7.485-7.054,10.422-12.141c2.938-5.087,4.82-10.448,5.304-15.096
		C418.667,233.872,415.379,230.742,413.347,229.57z M409.901,240.823c-0.364,3.502-1.922,7.848-4.274,11.923
		s-5.337,7.597-8.188,9.664c-2.513,1.82-3.876,1.77-4.023,1.683c-0.147-0.085-0.874-1.243-0.554-4.326
		c0.363-3.502,1.921-7.849,4.273-11.923c2.353-4.075,5.337-7.597,8.188-9.664c2.015-1.459,3.292-1.715,3.794-1.715
		c0.124,0,0.2,0.015,0.229,0.032C409.494,236.583,410.222,237.741,409.901,240.823z"/>
	<path d="M458.15,152.069l-128.63-74.26c-0.923-0.533-2.021-0.675-3.049-0.396l-20.491,5.569l-2.288-1.329V71.121
		c0-1.429-0.763-2.75-2-3.464c-0.027-0.016-0.056-0.026-0.083-0.041l0.002-0.005l-16.405-8.973c-1.226-0.671-2.712-0.653-3.92,0.045
		l-8.603,4.967l-14.375-8.354c-1.237-0.719-2.767-0.722-4.008-0.007l-139.319,80.33c-0.773,0.446-1.376,1.138-1.71,1.966
		l-25.193,62.319l-86.79,61.999C0.468,262.661,0,263.728,0,264.845v58.01c0,1.429,0.763,2.75,2,3.464l136.05,78.54
		c0.619,0.357,1.31,0.536,2,0.536s1.381-0.179,2-0.536c0.083-0.048,47.731-27.754,47.731-27.754
		c1.561,7.897,5.534,14.305,11.853,17.954c3.47,2.003,7.361,3,11.508,3c4.979,0,10.327-1.439,15.753-4.303
		c9.341-4.931,17.926-13.607,24.174-24.43c6.249-10.823,9.47-22.596,9.07-33.15c-0.011-0.288-0.036-0.566-0.052-0.851l103.752-60.01
		c1.74,7.25,5.601,13.121,11.541,16.55c3.551,2.05,7.484,3.025,11.603,3.025c13.724,0,29.481-10.827,39.833-28.756
		c8.027-13.903,10.726-28.482,8.337-39.872l20.456-17.14c0.883-0.74,1.404-1.826,1.43-2.978l1.111-50.523
		C460.182,154.161,459.415,152.799,458.15,152.069z M326.963,85.57l120.146,69.362l-29.885,12.312l-21.854-31.894
		c-0.499-0.809-1.271-1.429-2.198-1.721l-77.469-44.999L326.963,85.57z M255.853,220.75l49.298-28.497v39.16l-69.931,40.373
		L255.853,220.75z M313.15,187.628l53.671-31.025l7.938,34.622l-61.608,35.568V187.628z M382.006,187.041l-7.939-34.627
		l16.686-9.646l19.258,28.104L382.006,187.041z M283.34,66.737l8.189,4.479l-80.024,46.202l-8.189-4.479L283.34,66.737z
		 M295.692,78.049v35.966l-80.135,46.266v-35.966L295.692,78.049z M199.152,155.865V119.78l8.405,4.597v36.085L199.152,155.865z
		 M256.292,63.377l8.406,4.885l-71.545,41.307c-1.237,0.714-2,2.035-2,3.464v45.204c0,1.462,0.798,2.808,2.08,3.509l16.405,8.973
		l0.003-0.005c0.598,0.327,1.257,0.495,1.917,0.495c0.69,0,1.381-0.179,2-0.536l88.135-50.885c1.237-0.714,2-2.035,2-3.464V90.906
		l80.202,46.587l-131.291,75.895l-128.158-73.989L256.292,63.377z M118.761,145.354l128.865,74.401l-22.155,54.799L96.609,200.15
		L118.761,145.354z M92.161,206.82l128.502,74.196l-80.828,57.621L11.754,264.15L92.161,206.82z M189.036,368.272l-44.987,26.321
		v-12.017l46.768-27.051C189.695,359.915,189.105,364.205,189.036,368.272z M8,271.221l128.05,74.468v28.034L8,299.256V271.221z
		 M8,320.546V308.51l128.05,74.468v11.489L8,320.546z M246.141,365.327c-5.505,9.535-12.956,17.119-20.98,21.355
		c-7.424,3.917-14.358,4.433-19.526,1.448c-11.115-6.417-11.347-27.703-0.506-46.481c5.505-9.535,12.956-17.119,20.98-21.355
		c4.239-2.237,8.318-3.365,12.001-3.365c2.766,0,5.309,0.636,7.525,1.917c5.169,2.984,8.191,9.247,8.509,17.634
		C254.488,345.548,251.646,355.792,246.141,365.327z M421.888,262.134c-10.842,18.778-29.394,29.22-40.508,22.804
		c-11.115-6.418-11.347-27.704-0.506-46.482c10.843-18.779,29.398-29.22,40.508-22.803
		C432.497,222.07,432.729,243.356,421.888,262.134z M434.319,218.2c-2.095-3.993-5.079-7.248-8.937-9.475
		c-15.381-8.882-37.976,2.419-51.436,25.731c-6.324,10.954-9.342,22.329-9.17,32.232l-104.073,60.196
		c-1.927-6.695-5.706-11.871-11.068-14.967c-7.636-4.409-17.316-3.946-27.261,1.302c-9.341,4.931-17.926,13.607-24.174,24.43
		c-1.192,2.064-2.26,4.144-3.218,6.225l-50.932,29.46v-27.877l85.293-60.804c0.255-0.182,0.479-0.397,0.682-0.631l187.499-108.249
		l34.493-14.21l-0.937,42.593L434.319,218.2z"/>
	<polygon points="15.019,294.29 36.019,306.51 36.019,294.94 15.019,282.72 	"/>
	<polygon points="108.019,337.72 108.019,349.29 129.019,361.51 129.019,349.94 	"/>
	<polygon points="280.363,91.585 270.935,97.029 270.935,110.078 280.363,104.634 	"/>
	<polygon points="270.935,110.078 261.506,115.521 261.506,128.57 270.935,123.126 	"/>
	<polygon points="261.471,102.43 252.043,107.874 252.043,120.923 261.471,115.479 	"/>
	<polygon points="242.614,139.415 252.043,133.971 252.043,120.923 242.614,126.366 242.614,113.347 233.186,118.79 
		233.186,131.839 242.614,126.396 	"/>
</g>
<g>
</g>
<g>
</g>
<g>
</g>
<g>
</g>
<g>
</g>
<g>
</g>
<g>
</g>
<g>
</g>
<g>
</g>
<g>
</g>
<g>
</g>
<g>
</g>
<g>
</g>
<g>
</g>
<g>
</g>
</svg>
