<?xml version="1.0" encoding="iso-8859-1"?>
<!-- Generator: Adobe Illustrator 19.0.0, SVG Export Plug-In . SVG Version: 6.00 Build 0)  -->
<svg version="1.1" id="Capa_1" xmlns="http://www.w3.org/2000/svg" xmlns:xlink="http://www.w3.org/1999/xlink" x="0px" y="0px"
	 viewBox="0 0 511.902 511.902" style="enable-background:new 0 0 511.902 511.902;" xml:space="preserve">
<g>
	<g>
		<path d="M200.203,111.977h-0.085c-2.203,0-3.953,1.789-3.953,4s1.828,4,4.038,4c2.203,0,4-1.789,4-4
			S202.406,111.977,200.203,111.977z"/>
	</g>
</g>
<g>
	<g>
		<path d="M304.183,111.977h-0.086c-2.203,0-3.952,1.789-3.952,4s1.827,4,4.038,4c2.204,0,4-1.789,4-4
			S306.386,111.977,304.183,111.977z"/>
	</g>
</g>
<g>
	<g>
		<path d="M311.784,279.111c-7.843-7.842-18.263-12.161-29.347-12.161c-9.795,0-19.066,3.374-26.502,9.576
			c-7.429-6.202-16.7-9.576-26.495-9.576c-11.084,0-21.496,4.319-29.322,12.161c-7.843,7.827-12.162,18.247-12.162,29.323
			s4.319,21.495,12.162,29.322l52.989,52.998c0.781,0.78,1.805,1.171,2.828,1.171c1.024,0,2.046-0.391,2.828-1.171l53.021-52.998
			c7.834-7.827,12.153-18.246,12.153-29.322S319.618,286.938,311.784,279.111z M306.129,332.1l-50.193,50.17l-50.163-50.17
			c-6.334-6.319-9.818-14.724-9.818-23.667c0-8.944,3.484-17.349,9.818-23.668c6.318-6.334,14.723-9.818,23.667-9.818
			c8.944,0,17.348,3.484,23.668,9.818c0.75,0.75,1.766,1.172,2.828,1.172s2.077-0.422,2.827-1.172
			c6.327-6.334,14.732-9.818,23.675-9.818c8.944,0,17.356,3.484,23.691,9.818c6.327,6.319,9.811,14.724,9.811,23.668
			C315.94,317.376,312.455,325.781,306.129,332.1z"/>
	</g>
</g>
<g>
	<g>
		<path d="M229.441,282.944c-6.812,0-13.201,2.656-17.997,7.468c-4.828,4.812-7.483,11.217-7.483,18.021
			c0,6.803,2.647,13.192,7.459,18.004c0.781,0.781,1.805,1.172,2.828,1.172s2.046-0.39,2.828-1.173c1.562-1.562,1.562-4.093,0-5.655
			c-3.296-3.296-5.116-7.686-5.116-12.349c0-4.664,1.828-9.054,5.147-12.373c3.289-3.296,7.671-5.116,12.334-5.116
			c2.21,0,3.999-1.789,3.999-3.999C233.44,284.733,231.651,282.944,229.441,282.944z"/>
	</g>
</g>
<g>
	<g>
		<path d="M255.951,0c-69.823,0-123.977,68.792-123.977,127.976c0,42.992,27.026,75.524,74.15,89.264
			c0.375,0.101,0.75,0.156,1.117,0.156c1.734,0,3.328-1.133,3.843-2.882c0.617-2.117-0.601-4.335-2.726-4.96
			c-43.46-12.661-68.385-42.398-68.385-81.578c0-55.482,50.662-119.977,115.978-119.977c65.315,0,115.978,64.495,115.979,119.977
			c0,39.172-24.925,68.909-68.386,81.578c-2.124,0.625-3.343,2.843-2.726,4.96c0.625,2.117,2.858,3.288,4.96,2.726
			c47.123-13.747,74.149-46.28,74.149-89.264C379.927,68.792,325.773,0,255.951,0z"/>
	</g>
</g>
<g>
	<g>
		<path d="M255.951,119.977c-28.667,0-51.99,23.323-51.99,51.99s23.323,51.99,51.99,51.99c28.666,0,51.99-23.323,51.99-51.99
			S284.617,119.977,255.951,119.977z M255.951,215.959c-24.253,0-43.992-19.738-43.992-43.992c0-24.254,19.739-43.992,43.992-43.992
			s43.991,19.738,43.991,43.992C299.942,196.221,280.204,215.959,255.951,215.959z"/>
	</g>
</g>
<g>
	<g>
		<path d="M255.951,143.973c-11.03,0-19.997,8.967-19.997,19.996s8.968,19.996,19.997,19.996s19.996-8.967,19.996-19.996
			S266.981,143.973,255.951,143.973z M255.951,175.967c-6.616,0-11.998-5.382-11.998-11.998c0-6.616,5.382-11.998,11.998-11.998
			c6.615,0,11.997,5.382,11.997,11.998C267.948,170.585,262.566,175.967,255.951,175.967z"/>
	</g>
</g>
<g>
	<g>
		<path d="M203.961,103.98c-8.819,0-15.997,7.178-15.997,15.997c0,8.819,7.178,15.997,15.997,15.997
			c8.818,0,15.997-7.178,15.997-15.997C219.958,111.158,212.779,103.98,203.961,103.98z M203.961,127.975
			c-4.414,0-7.999-3.585-7.999-7.998c0-4.414,3.586-7.999,7.999-7.999s7.998,3.586,7.998,7.999S208.375,127.975,203.961,127.975z"/>
	</g>
</g>
<g>
	<g>
		<path d="M307.941,103.98c-8.819,0-15.998,7.178-15.998,15.997c0,8.819,7.179,15.997,15.998,15.997
			c8.819,0,15.996-7.178,15.996-15.997C323.937,111.158,316.759,103.98,307.941,103.98z M307.941,127.975
			c-4.414,0-7.999-3.585-7.999-7.998c0-4.414,3.585-7.999,7.999-7.999c4.412,0,7.998,3.586,7.998,7.999
			C315.939,124.39,312.353,127.975,307.941,127.975z"/>
	</g>
</g>
<g>
	<g>
		<path d="M172.857,18.818C164.85,11.843,154.595,8,143.972,8C119.719,8,99.98,27.738,99.98,51.991
			c0,16.809,9.796,32.377,24.949,39.656c0.562,0.273,1.148,0.398,1.734,0.398c1.484,0,2.913-0.836,3.6-2.264
			c0.961-1.992,0.125-4.382-1.866-5.335c-12.404-5.968-20.418-18.708-20.418-32.455c0-19.847,16.145-35.993,35.993-35.993
			c8.686,0,17.082,3.141,23.636,8.85c1.672,1.461,4.187,1.281,5.64-0.39C174.7,22.794,174.529,20.271,172.857,18.818z"/>
	</g>
</g>
<g>
	<g>
		<path d="M155.986,36.001c-3.492-2.624-7.639-4.007-12.013-4.007c-11.03,0-19.997,8.967-19.997,19.996
			c0,7.108,3.82,13.739,9.975,17.317c0.632,0.367,1.32,0.539,2.007,0.539c1.375,0,2.719-0.71,3.461-1.991
			c1.109-1.906,0.461-4.359-1.453-5.468c-3.695-2.147-5.991-6.131-5.991-10.396c0-6.616,5.382-11.998,11.998-11.998
			c2.624,0,5.116,0.828,7.201,2.398c1.789,1.336,4.281,0.969,5.601-0.789C158.103,39.836,157.752,37.329,155.986,36.001z"/>
	</g>
</g>
<g>
	<g>
		<path d="M367.93,8c-10.639,0-20.895,3.843-28.894,10.818c-1.663,1.452-1.835,3.983-0.382,5.647
			c1.467,1.663,3.982,1.812,5.646,0.382c6.53-5.71,14.927-8.85,23.629-8.85c19.847,0,35.992,16.145,35.992,35.993
			c0,13.747-8.014,26.488-20.418,32.455c-1.991,0.953-2.827,3.343-1.866,5.335c0.688,1.429,2.117,2.265,3.601,2.265
			c0.586,0,1.172-0.125,1.735-0.398c15.153-7.279,24.948-22.846,24.948-39.656C411.921,27.738,392.183,8,367.93,8z"/>
	</g>
</g>
<g>
	<g>
		<path d="M367.93,31.993c-4.375,0-8.523,1.383-12.014,4.007c-1.766,1.329-2.117,3.836-0.789,5.601
			c1.321,1.758,3.829,2.125,5.601,0.789c2.086-1.57,4.577-2.398,7.202-2.398c6.615,0,11.997,5.382,11.997,11.998
			c0,4.264-2.304,8.248-6.007,10.396c-1.905,1.11-2.561,3.554-1.452,5.468c0.741,1.282,2.085,1.992,3.46,1.992
			c0.687,0,1.375-0.172,2.008-0.54c6.162-3.578,9.99-10.209,9.99-17.317C387.926,40.96,378.959,31.993,367.93,31.993z"/>
	</g>
</g>
<g>
	<g>
		<path d="M183.964,215.959c-21.027,0-32.486,18.941-35.907,35.165c-0.453,2.163,0.93,4.288,3.085,4.741
			c0.281,0.055,0.563,0.086,0.836,0.086c1.844,0,3.508-1.289,3.905-3.171c2.805-13.295,11.842-28.823,28.081-28.823
			c2.21,0,3.999-1.789,3.999-3.999C187.963,217.748,186.174,215.959,183.964,215.959z"/>
	</g>
</g>
<g>
	<g>
		<path d="M152.627,248.006c-2.125-0.382-4.234,1.101-4.601,3.289l-15.997,95.981c-0.367,2.18,1.109,4.242,3.288,4.601
			c0.219,0.039,0.445,0.055,0.664,0.055c1.914,0,3.609-1.382,3.937-3.343l15.997-95.982
			C156.282,250.427,154.806,248.365,152.627,248.006z"/>
	</g>
</g>
<g>
	<g>
		<path d="M363.844,251.124c-3.421-16.224-14.88-35.165-35.906-35.165c-2.211,0-4,1.789-4,3.999c0,2.21,1.789,3.999,4,3.999
			c16.238,0,25.275,15.529,28.08,28.823c0.398,1.882,2.062,3.171,3.905,3.171c0.273,0,0.554-0.031,0.836-0.086
			C362.914,255.412,364.297,253.288,363.844,251.124z"/>
	</g>
</g>
<g>
	<g>
		<path d="M379.872,347.276l-15.997-95.981c-0.368-2.188-2.492-3.672-4.601-3.289c-2.179,0.36-3.655,2.422-3.288,4.601
			l15.997,95.982c0.329,1.96,2.023,3.343,3.937,3.343c0.219,0,0.445-0.015,0.664-0.055
			C378.764,351.517,380.239,349.456,379.872,347.276z"/>
	</g>
</g>
<g>
	<g>
		<path d="M127.975,351.933c-41.898,0-75.985,35.883-75.985,79.984c0,44.101,34.087,79.985,75.985,79.985
			c41.898,0,75.986-35.884,75.985-79.985C203.96,387.817,169.873,351.933,127.975,351.933z M127.975,503.902
			c-37.485,0-67.987-32.29-67.987-71.986c0-39.695,30.502-71.985,67.987-71.985c37.485,0,67.987,32.291,67.987,71.985
			C195.962,471.612,165.46,503.902,127.975,503.902z"/>
	</g>
</g>
<g>
	<g>
		<path d="M419.498,250.163c-15.552-31.103-49.835-50.201-67.565-50.201c-2.211,0-3.999,1.789-3.999,3.999
			c0,2.211,1.788,3.999,3.999,3.999c14.934,0,46.647,18.262,60.41,45.78c0.703,1.399,2.116,2.211,3.577,2.211
			c0.601,0,1.211-0.133,1.789-0.422C419.686,254.537,420.481,252.14,419.498,250.163z"/>
	</g>
</g>
<g>
	<g>
		<path d="M443.493,298.154l-23.995-47.991c-0.992-1.977-3.39-2.773-5.367-1.789c-1.976,0.992-2.772,3.39-1.788,5.366l23.995,47.991
			c0.703,1.398,2.117,2.21,3.578,2.21c0.6,0,1.21-0.133,1.788-0.422C443.681,302.528,444.476,300.13,443.493,298.154z"/>
	</g>
</g>
<g>
	<g>
		<path d="M443.243,297.723c-1.242-1.843-3.726-2.328-5.546-1.109c-1.836,1.227-2.336,3.71-1.109,5.546
			c8.819,13.239,10.631,25.573,5.226,35.673c-5.234,9.764-15.044,14.099-17.896,14.099c-2.21,0-3.998,1.789-3.998,3.999
			c0,2.211,1.788,4,3.998,4c6.187,0,18.63-6.522,24.941-18.326C453.663,332.638,456.584,317.743,443.243,297.723z"/>
	</g>
</g>
<g>
	<g>
		<path d="M383.926,351.933c-41.897,0-75.984,35.883-75.984,79.984c0,44.101,34.087,79.985,75.984,79.985
			c41.898,0,75.986-35.884,75.986-79.985C459.912,387.817,425.824,351.933,383.926,351.933z M383.926,503.902
			c-37.484,0-67.986-32.29-67.986-71.986c0-39.695,30.502-71.985,67.986-71.985c37.485,0,67.987,32.291,67.987,71.985
			C451.913,471.612,421.411,503.902,383.926,503.902z"/>
	</g>
</g>
<g>
	<g>
		<path d="M383.926,383.927c-24.253,0-43.991,21.526-43.991,47.99s19.738,47.991,43.991,47.991
			c24.254,0,43.992-21.527,43.992-47.991S408.18,383.927,383.926,383.927z M383.926,471.91c-19.847,0-35.992-17.942-35.992-39.993
			c0-22.05,16.144-39.992,35.992-39.992c19.847,0,35.994,17.942,35.994,39.992C419.92,453.968,403.773,471.91,383.926,471.91z"/>
	</g>
</g>
<g>
	<g>
		<path d="M127.975,383.927c-24.254,0-43.992,21.526-43.992,47.99s19.739,47.991,43.992,47.991s43.991-21.527,43.991-47.991
			S152.228,383.927,127.975,383.927z M127.975,471.91c-19.847,0-35.993-17.942-35.993-39.993c0-22.05,16.145-39.992,35.993-39.992
			c19.848,0,35.994,17.942,35.993,39.992C163.968,453.968,147.822,471.91,127.975,471.91z"/>
	</g>
</g>
<g>
	<g>
		<path d="M159.968,199.962c-17.731,0-52.013,19.097-67.565,50.201c-0.984,1.976-0.187,4.374,1.789,5.366
			c0.578,0.289,1.187,0.422,1.789,0.422c1.461,0,2.875-0.812,3.577-2.211c13.763-27.517,45.475-45.78,60.41-45.78
			c2.211,0,4-1.788,4-3.999C163.968,201.751,162.178,199.962,159.968,199.962z"/>
	</g>
</g>
<g>
	<g>
		<path d="M97.77,248.374c-1.976-0.976-4.374-0.187-5.366,1.789l-23.996,47.991c-0.983,1.975-0.187,4.374,1.789,5.365
			c0.578,0.289,1.187,0.422,1.789,0.422c1.461,0,2.874-0.812,3.577-2.21l23.996-47.991
			C100.542,251.764,99.746,249.366,97.77,248.374z"/>
	</g>
</g>
<g>
	<g>
		<path d="M87.983,351.933c-2.852,0-12.663-4.335-17.896-14.099c-5.405-10.1-3.592-22.434,5.226-35.673
			c1.226-1.836,0.726-4.319-1.109-5.546c-1.82-1.211-4.312-0.735-5.546,1.109c-13.341,20.02-10.42,34.915-5.616,43.882
			c6.311,11.803,18.754,18.325,24.941,18.325c2.21,0,3.999-1.789,3.999-3.999C91.982,353.722,90.193,351.933,87.983,351.933z"/>
	</g>
</g>
<g>
	<g>
		<path d="M298.598,455.912h-85.312c-2.21,0-3.999,1.789-3.999,4c0,2.21,1.789,3.999,3.999,3.999h85.312
			c2.211,0,3.999-1.789,3.999-3.999C302.597,457.701,300.809,455.912,298.598,455.912z"/>
	</g>
</g>
<g>
	<g>
		<path d="M322.336,472.705l-31.993-23.995c-1.758-1.32-4.265-0.961-5.601,0.805c-1.32,1.766-0.961,4.273,0.805,5.601l31.994,23.995
			c0.718,0.539,1.561,0.797,2.397,0.797c1.211,0,2.413-0.555,3.203-1.602C324.461,476.54,324.102,474.033,322.336,472.705z"/>
	</g>
</g>
<g>
	<g>
		<path d="M227.16,449.515c-1.328-1.774-3.835-2.125-5.6-0.805l-31.994,23.995c-1.766,1.329-2.125,3.835-0.805,5.601
			c0.789,1.047,1.992,1.602,3.202,1.602c0.836,0,1.679-0.258,2.398-0.797l31.995-23.995
			C228.121,453.787,228.48,451.281,227.16,449.515z"/>
	</g>
</g>
<g>
</g>
<g>
</g>
<g>
</g>
<g>
</g>
<g>
</g>
<g>
</g>
<g>
</g>
<g>
</g>
<g>
</g>
<g>
</g>
<g>
</g>
<g>
</g>
<g>
</g>
<g>
</g>
<g>
</g>
</svg>
