<svg xmlns="http://www.w3.org/2000/svg" viewBox="-7739 -218.361 27.12 25"><defs><style>.cls-1{fill:#414948}</style></defs><g id="tent" transform="translate(-7739 -237.511)"><g id="Group_399" data-name="Group 399" transform="translate(0 19.15)"><g id="Group_398" data-name="Group 398"><path id="Rectangle_1215" data-name="Rectangle 1215" class="cls-1" transform="translate(14.722 9.78)" d="M0 0h1.439v.83H0z"/><path id="Rectangle_1216" data-name="Rectangle 1216" class="cls-1" transform="translate(21.198 17.473)" d="M0 0h.886v1.605H0z"/><path id="Rectangle_1217" data-name="Rectangle 1217" class="cls-1" transform="translate(21.198 14.927)" d="M0 0h.886v1.605H0z"/><path id="Rectangle_1218" data-name="Rectangle 1218" class="cls-1" transform="translate(4.704 22.122)" d="M0 0h11.844v.886H0z"/><path id="Rectangle_1219" data-name="Rectangle 1219" class="cls-1" transform="translate(17.822 22.122)" d="M0 0h1.55v.886H0z"/><path id="Rectangle_1220" data-name="Rectangle 1220" class="cls-1" transform="translate(16.161 24.114)" d="M0 0h6.309v.886H0z"/><path id="Path_534" data-name="Path 534" class="cls-1" d="M19.845 25.662a3.256 3.256 0 1 0-3.256-3.256 3.26 3.26 0 0 0 3.256 3.256zm0-5.665a2.409 2.409 0 1 1-2.409 2.409A2.411 2.411 0 0 1 19.845 20z" transform="translate(-15.671 -19.15)"/><path id="Path_535" data-name="Path 535" class="cls-1" d="M416.885 78.308l-1.538-1.538-1.538 1.538 1.538 1.538zm-1.538-.339l.339.339-.339.339-.339-.339z" transform="translate(-390.907 -73.581)"/><path id="Path_536" data-name="Path 536" class="cls-1" d="M319.842 27.129l-1.542-1.538-1.538 1.538 1.538 1.538zm-1.877 0l.339-.339.339.339-.339.339z" transform="translate(-299.235 -25.235)"/><path id="Path_537" data-name="Path 537" class="cls-1" d="M25.687 171.137l-3.829-12.287H5.153l-3.828 12.287H0v.83h27.12v-.83zm-23.482 0l2.92-9.409h8.325v-.83H5.382l.4-1.273h15.206l-3.576 11.512zm16.095 0l2.9-9.331v3.409h.886v-2.856l2.726 8.778z" transform="translate(0 -151.118)"/></g></g></g></svg>