<?xml version="1.0" standalone="no"?>
<svg version="1.1" preserveAspectRatio="xMidYMid slice" viewBox="0 0 512 512" class="ng-element" data-id="150f199a478ec5ac4d0cee8c85b09bdc" style="filter: none; overflow: visible; fill: rgb(89, 89, 89); width: 70px; height: 70px; pointer-events: all;" xmlns="http://www.w3.org/2000/svg"><g>
	<g>
		<path d="M398.821,358.717c-0.823-4.06-4.779-6.679-8.842-5.858c-4.059,0.824-6.682,4.783-5.857,8.843&#10;&#9;&#9;&#9;c0.433,2.131,0.652,4.326,0.652,6.523c0,17.965-14.616,32.581-32.581,32.581c-17.965,0-32.581-14.616-32.581-32.581&#10;&#9;&#9;&#9;c0-17.965,14.616-32.581,32.581-32.581c4.533,0,8.917,0.911,13.029,2.708c3.796,1.657,8.217-0.075,9.875-3.871&#10;&#9;&#9;&#9;c1.658-3.796-0.075-8.217-3.871-9.875c-6.018-2.628-12.421-3.961-19.034-3.961c-26.236,0-47.581,21.345-47.581,47.581&#10;&#9;&#9;&#9;c0,26.236,21.345,47.581,47.581,47.581c26.236,0,47.581-21.345,47.581-47.581C399.773,365.028,399.453,361.829,398.821,358.717z" vector-effect="non-scaling-stroke" style="fill: rgb(89, 89, 89);"/>
	</g>
</g><g>
	<g>
		<path d="M182.387,262.526c-0.823-4.061-4.784-6.684-8.841-5.861c-4.06,0.824-6.683,4.782-5.859,8.841&#10;&#9;&#9;&#9;c0.433,2.133,0.652,4.329,0.652,6.526c0,17.965-14.616,32.581-32.581,32.581c-17.965,0-32.581-14.616-32.581-32.581&#10;&#9;&#9;&#9;c0-17.965,14.616-32.581,32.581-32.581c4.533,0,8.916,0.911,13.028,2.708c3.796,1.658,8.217-0.075,9.875-3.871&#10;&#9;&#9;&#9;c1.658-3.796-0.075-8.217-3.871-9.875c-6.018-2.628-12.421-3.961-19.033-3.961c-26.236,0-47.581,21.345-47.581,47.581&#10;&#9;&#9;&#9;s21.345,47.581,47.581,47.581c26.236,0,47.581-21.345,47.581-47.581C183.338,268.837,183.018,265.638,182.387,262.526z" vector-effect="non-scaling-stroke" style="fill: rgb(89, 89, 89);"/>
	</g>
</g><g>
	<g>
		<path d="M320.129,232.467c-4.142,0-7.5,3.358-7.5,7.5c0,9.125-7.423,16.548-16.548,16.548s-16.548-7.423-16.548-16.548&#10;&#9;&#9;&#9;s7.423-16.548,16.548-16.548c4.142,0,7.5-3.358,7.5-7.5c0-4.142-3.358-7.5-7.5-7.5c-17.396,0-31.548,14.152-31.548,31.548&#10;&#9;&#9;&#9;s14.152,31.548,31.548,31.548s31.548-14.152,31.548-31.548C327.629,235.825,324.271,232.467,320.129,232.467z" vector-effect="non-scaling-stroke" style="fill: rgb(89, 89, 89);"/>
	</g>
</g><g>
	<g>
		<path d="M416.323,232.467c-12.976,0-23.532,10.557-23.532,23.532c0,12.975,10.557,23.532,23.532,23.532&#10;&#9;&#9;&#9;c12.975,0,23.532-10.557,23.532-23.532C439.855,243.024,429.298,232.467,416.323,232.467z M416.323,264.532&#10;&#9;&#9;&#9;c-4.705,0-8.532-3.828-8.532-8.532c0-4.704,3.828-8.532,8.532-8.532c4.704,0,8.532,3.828,8.532,8.532&#10;&#9;&#9;&#9;C424.855,260.704,421.027,264.532,416.323,264.532z" vector-effect="non-scaling-stroke" style="fill: rgb(89, 89, 89);"/>
	</g>
</g><g>
	<g>
		<path d="M87.661,360.725c-17.396,0-31.548,14.153-31.548,31.549c0,17.396,14.152,31.548,31.548,31.548&#10;&#9;&#9;&#9;s31.548-14.152,31.548-31.548S105.057,360.725,87.661,360.725z M87.661,408.822c-9.125,0-16.548-7.423-16.548-16.548&#10;&#9;&#9;&#9;s7.423-16.549,16.548-16.549s16.548,7.424,16.548,16.549S96.786,408.822,87.661,408.822z" vector-effect="non-scaling-stroke" style="fill: rgb(89, 89, 89);"/>
	</g>
</g><g>
	<g>
		<path d="M207.903,344.693c-12.976,0-23.532,10.557-23.532,23.532c0,12.976,10.557,23.533,23.532,23.533&#10;&#9;&#9;&#9;s23.532-10.557,23.532-23.533C231.436,355.25,220.879,344.693,207.903,344.693z M207.903,376.758&#10;&#9;&#9;&#9;c-4.705,0-8.532-3.828-8.532-8.533c0-4.705,3.828-8.532,8.532-8.532s8.532,3.828,8.532,8.532&#10;&#9;&#9;&#9;C216.436,372.93,212.608,376.758,207.903,376.758z" vector-effect="non-scaling-stroke" style="fill: rgb(89, 89, 89);"/>
	</g>
</g><g>
	<g>
		<path d="M499.399,320.141c7.419-1.564,12.601-7.816,12.601-15.204V175.839c0-2.993-1.757-5.568-4.292-6.772l0.003-0.006&#10;&#9;&#9;&#9;L256.264,49.952c-16.364-7.701-34.711-10.999-53.061-9.531c-82.806,6.611-131.609,41.58-157.968,69.75&#10;&#9;&#9;&#9;C11.847,145.853,0,185.12,0,207.903v224.452c0,21.816,17.749,39.564,39.564,39.564h163.117c6.543,0,12.396-4.14,14.564-10.302&#10;&#9;&#9;&#9;c4.58-13.017,16.933-21.762,30.738-21.762c13.805,0,26.157,8.746,30.738,21.762c2.168,6.162,8.021,10.302,14.564,10.302h203.198&#10;&#9;&#9;&#9;c8.556,0,15.516-6.96,15.516-15.516v-72.987c0-7.387-5.182-13.639-12.601-15.204c-11.278-2.377-19.464-12.486-19.464-24.036&#10;&#9;&#9;&#9;C479.934,332.626,488.121,322.519,499.399,320.141z M496.305,382.89c0.342,0.072,0.695,0.289,0.695,0.526v72.987&#10;&#9;&#9;&#9;c0,0.285-0.231,0.516-0.516,0.516H293.286c-0.192,0-0.355-0.11-0.415-0.281c-6.689-19.011-24.728-31.784-44.887-31.784&#10;&#9;&#9;&#9;c-20.16,0-38.198,12.773-44.887,31.784c-0.06,0.17-0.223,0.281-0.415,0.281H39.564C26.02,456.919,15,445.9,15,432.355V207.903&#10;&#9;&#9;&#9;c0-13.545,11.02-24.564,24.564-24.564h352.709c4.142,0,7.5-3.358,7.5-7.5c0-4.142-3.358-7.5-7.5-7.5H39.564&#10;&#9;&#9;&#9;c-5.93,0-11.554,1.32-16.608,3.668c7.889-19.385,20.592-38.078,33.231-51.586c24.549-26.236,70.189-58.817,148.21-65.047&#10;&#9;&#9;&#9;c15.748-1.258,31.476,1.561,45.462,8.143l221.289,104.822h-46.813c-4.142,0-7.5,3.358-7.5,7.5c0,4.142,3.358,7.5,7.5,7.5H497&#10;&#9;&#9;&#9;v121.599c0,0.238-0.353,0.454-0.695,0.526c-18.176,3.833-31.369,20.114-31.369,38.713S478.128,379.058,496.305,382.89z" vector-effect="non-scaling-stroke" style="fill: rgb(89, 89, 89);"/>
	</g>
</g><g>
</g><g>
</g><g>
</g><g>
</g><g>
</g><g>
</g><g>
</g><g>
</g><g>
</g><g>
</g><g>
</g><g>
</g><g>
</g><g>
</g><g>
</g></svg>