<?xml version="1.0" standalone="no"?>
<svg version="1.1" preserveAspectRatio="xMidYMid slice" viewBox="0 0 24 24" class="ng-element" data-id="50c5a956a2853e01054fe4d951b83638" style="filter: none; fill: rgb(117, 117, 117); width: 70px; height: 70px;" xmlns="http://www.w3.org/2000/svg"><g><path xmlns:default="http://www.w3.org/2000/svg" d="M15.5 14h-.79l-.28-.27C15.41 12.59 16 11.11 16 9.5 16 5.91 13.09 3 9.5 3S3 5.91 3 9.5 5.91 16 9.5 16c1.61 0 3.09-.59 4.23-1.57l.27.28v.79l5 4.99L20.49 19l-4.99-5zm-6 0C7.01 14 5 11.99 5 9.5S7.01 5 9.5 5 14 7.01 14 9.5 11.99 14 9.5 14z" style="fill: rgb(117, 117, 117);"/><path xmlns:default="http://www.w3.org/2000/svg" d="M12 10h-2v2H9v-2H7V9h2V7h1v2h2v1z" style="fill: rgb(117, 117, 117);"/></g></svg>