<?xml version="1.0" encoding="iso-8859-1"?>
<!-- Generator: Adobe Illustrator 19.0.0, SVG Export Plug-In . SVG Version: 6.00 Build 0)  -->
<svg version="1.1" id="Layer_1" xmlns="http://www.w3.org/2000/svg" xmlns:xlink="http://www.w3.org/1999/xlink" x="0px" y="0px"
	 viewBox="0 0 512.001 512.001" style="enable-background:new 0 0 512.001 512.001;" xml:space="preserve">
<g>
	<g>
		<path d="M321.039,179.033H190.963c-4.145,0-7.504,3.359-7.504,7.504v68.222c0,4.144,3.359,7.504,7.504,7.504h130.076
			c4.145,0,7.504-3.36,7.504-7.504v-68.222C328.543,182.392,325.184,179.033,321.039,179.033z M313.534,247.255H198.468v-53.213
			h115.067V247.255z"/>
	</g>
</g>
<g>
	<g>
		<path d="M155.943,179.033H92.062c-27.181,0-49.295,22.113-49.295,49.295v26.431c0,4.144,3.359,7.504,7.504,7.504h105.67
			c4.145,0,7.505-3.36,7.505-7.504v-68.222C163.447,182.393,160.088,179.033,155.943,179.033z M148.438,247.255H57.776v-18.927
			c0-18.906,15.38-34.286,34.286-34.286h56.377V247.255z"/>
	</g>
</g>
<g>
	<g>
		<path d="M419.938,179.033h-63.881c-4.145,0-7.504,3.36-7.504,7.504v68.222c0,4.144,3.359,7.504,7.504,7.504h105.672
			c4.145,0,7.504-3.36,7.504-7.504v-26.431C469.233,201.146,447.119,179.033,419.938,179.033z M454.225,247.255h-90.662v-53.213
			h56.376c18.906,0,34.286,15.38,34.286,34.286V247.255z"/>
	</g>
</g>
<g>
	<g>
		<path d="M361.426,356.701c-15.514,0-28.134,12.62-28.134,28.134s12.62,28.134,28.134,28.134s28.134-12.62,28.134-28.134
			S376.94,356.701,361.426,356.701z M361.426,397.96c-7.237,0-13.126-5.888-13.126-13.126c0-7.237,5.888-13.126,13.126-13.126
			c7.237,0,13.126,5.887,13.126,13.126S368.664,397.96,361.426,397.96z"/>
	</g>
</g>
<g>
	<g>
		<path d="M140.6,356.701c-15.513,0-28.133,12.62-28.133,28.134s12.62,28.134,28.133,28.134c15.514,0,28.134-12.62,28.134-28.134
			S156.113,356.701,140.6,356.701z M140.6,397.96c-7.236,0-13.125-5.888-13.125-13.126c0-7.237,5.888-13.126,13.125-13.126
			c7.237,0,13.126,5.887,13.126,13.126S147.837,397.96,140.6,397.96z"/>
	</g>
</g>
<g>
	<g>
		<path d="M390.495,301.436h-34.437c-4.145,0-7.504,3.36-7.504,7.504s3.359,7.504,7.504,7.504h34.437
			c4.145,0,7.504-3.36,7.504-7.504S394.641,301.436,390.495,301.436z"/>
	</g>
</g>
<g>
	<g>
		<path d="M499.252,350.014v-67.636v-54.051c0-43.733-35.58-79.312-79.312-79.312H198.468v-15.009h243.641
			c4.145,0,7.504-3.36,7.504-7.504c0-23.087-18.782-41.87-41.87-41.87h-52.627c-4.145,0-7.504,3.36-7.504,7.504
			s3.359,7.504,7.504,7.504h52.627c12.208,0,22.539,8.187,25.794,19.357H198.468V99.641h126.632c4.145,0,7.504-3.36,7.504-7.504
			s-3.359-7.504-7.504-7.504H198.468v-2.501c0-4.145-3.359-7.504-7.504-7.504c-4.145,0-7.504,3.359-7.504,7.504v2.501h-20.012
			v-2.501c0-4.145-3.359-7.504-7.504-7.504c-4.145,0-7.504,3.359-7.504,7.504v2.501H74.241c-23.088,0-41.872,18.783-41.872,41.87
			c0,4.144,3.359,7.504,7.504,7.504h108.564v15.009H92.061c-43.732,0-79.312,35.58-79.312,79.312v54.051v67.636
			C5.382,352.241,0,359.085,0,367.169v14.252c0,9.882,8.04,17.922,17.922,17.922h40.816c9.574,0,17.396-7.552,17.875-17.01h11.51
			c-0.039,0.829-0.063,1.663-0.063,2.501c0,28.971,23.57,52.54,52.54,52.54c28.971,0,52.541-23.569,52.541-52.54
			c0-0.839-0.024-1.672-0.063-2.501h64.084c4.145,0,7.504-3.36,7.504-7.504s-3.359-7.504-7.504-7.504h-67.016
			c-0.06-0.171-0.127-0.338-0.189-0.508c-0.008-0.022-0.016-0.044-0.024-0.066c-7.499-20.446-27.562-34.455-49.332-34.455
			c-0.011,0-0.023,0-0.034,0c-22.072,0.001-42.218,14.172-49.511,35.028H76.66v-0.156c0-9.717-8.142-17.921-17.921-17.921H27.757
			v-59.364c0,0,58.928,0,58.93,0c4.017,0,7.504-3.454,7.504-7.504c0-4.144-3.359-7.504-7.504-7.504h-58.93v-46.547
			c0-35.458,28.846-64.303,64.303-64.303h327.878v0.001c35.458,0,64.303,28.847,64.303,64.303v46.547H116.706
			c-4.145,0-7.504,3.36-7.504,7.504s3.359,7.504,7.504,7.504h367.536v59.364h-30.98c-8.029,0-14.842,5.307-17.114,12.598
			c-0.175,0.561-0.323,1.134-0.442,1.716c-0.239,1.166-0.365,2.372-0.365,3.607v0.156h-24.368
			c-6.706-19.173-23.75-32.64-44.004-34.735c-0.141-0.015-0.282-0.027-0.423-0.041c-21.679-2.102-43.004,9.71-52.436,29.376
			c-0.842,1.757-1.587,3.56-2.23,5.399h-24.702c-4.145,0-7.504,3.36-7.504,7.504s3.359,7.504,7.504,7.504h21.773
			c-0.039,0.829-0.063,1.663-0.063,2.501c0,28.971,23.57,52.54,52.54,52.54s52.54-23.569,52.54-52.54
			c0-0.839-0.024-1.672-0.063-2.501h21.484c0.479,9.458,8.302,17.01,17.875,17.01h40.816c9.883,0,17.922-8.04,17.922-17.922v-14.252
			C512.001,359.084,506.619,352.24,499.252,350.014z M140.551,347.304c0.017,0,0.033-0.001,0.05-0.001
			c0.013,0,0.025,0.001,0.038,0.001c20.183,0,37.463,17.298,37.493,37.479c0,0.017,0,0.034,0,0.051
			c-0.001,20.695-16.838,37.531-37.532,37.531c-20.695,0-37.531-16.837-37.531-37.531
			C103.069,364.56,120.234,347.304,140.551,347.304z M58.738,364.256c1.581,0,2.913,1.337,2.913,2.913v14.252
			c0,1.606-1.307,2.914-2.913,2.914H17.922c-1.606,0-2.914-1.307-2.914-2.914v-14.252c0-1.606,1.308-2.913,2.914-2.913
			c0,0,2.325,0,2.33,0C20.253,364.256,58.685,364.256,58.738,364.256z M148.437,118.998H48.445
			c3.255-11.172,13.588-19.357,25.796-19.357h74.196V118.998z M183.459,149.016h-20.012v-15.009h20.012V149.016z M183.459,118.998
			h-20.012V99.641h20.012V118.998z M361.426,422.365c-20.695,0-37.531-16.837-37.531-37.531c0-20.972,18.376-38.495,39.349-37.485
			c19.575,0.944,35.713,17.911,35.713,37.485C398.957,405.529,382.12,422.365,361.426,422.365z M496.991,381.421
			c0,1.606-1.308,2.914-2.914,2.914h-40.816c-1.606,0-2.913-1.307-2.913-2.914c0,0,0-14.248,0-14.252
			c0-1.587,1.328-2.913,2.913-2.913c0,0,38.484,0,38.489,0c2.152,0,5.24-0.112,5.24,2.913V381.421z"/>
	</g>
</g>
<g>
</g>
<g>
</g>
<g>
</g>
<g>
</g>
<g>
</g>
<g>
</g>
<g>
</g>
<g>
</g>
<g>
</g>
<g>
</g>
<g>
</g>
<g>
</g>
<g>
</g>
<g>
</g>
<g>
</g>
</svg>
