<?xml version="1.0" standalone="no"?>
<svg version="1.1" preserveAspectRatio="xMidYMid slice" viewBox="-723 1724 437.659 468.293" class="ng-element" data-id="4816ea0af3e0fc4bb7593c9bd8f71050" style="filter: none; overflow: visible; width: 70px; height: 70px;" xmlns="http://www.w3.org/2000/svg"><defs>
    <style>
      .cls-1_1518072892878 {
        fill: #3a556a;
      }

      .cls-2_1518072892878 {
        fill: #a8a8a8;
      }

      .cls-3_1518072892878 {
        fill: #bfbfbf;
      }
    </style>
  </defs><g id="goal_1518072892878" transform="translate(-738.317 1724)">
    <path id="Path_444_1518072892878" data-name="Path 444" class="cls-1_1518072892878" d="M74.655,445.018H46.306V14.174A14.174,14.174,0,0,1,60.481,0h0A14.174,14.174,0,0,1,74.655,14.174Z" vector-effect="non-scaling-stroke"/>
    <path id="Path_445_1518072892878" data-name="Path 445" class="cls-2_1518072892878" d="M46.306,26.9V279.558c19.279-8.811,31.846,0,31.846,0V26.9S65.586,18.09,46.306,26.9Z" vector-effect="non-scaling-stroke"/>
    <path id="Path_446_1518072892878" data-name="Path 446" class="cls-1_1518072892878" d="M34.049,445.018H86.913a18.732,18.732,0,0,1,18.732,18.732v4.543H15.317V463.75A18.731,18.731,0,0,1,34.049,445.018Z" vector-effect="non-scaling-stroke"/>
    <path id="Path_447_1518072892878" data-name="Path 447" class="cls-3_1518072892878" d="M397.3,137.607c-9.076-5.276-16.9-12.318-23.974-20.073C340.509,81.571,290.2,88.646,290.2,88.646c-49.466,6.931-83.535-13.371-101.462-28.621-30.216-25.7-69.39-38.673-108.774-33.929a45.482,45.482,0,0,0-5.309.838V279.87a45.241,45.241,0,0,0,5.309.838c39.384,4.744,78.558-8.227,108.774-33.93,17.927-15.249,52-35.552,101.462-28.62,0,0,50.309,7.074,83.127-28.888,7.077-7.754,14.9-14.8,23.974-20.072,13.493-7.844,33.5-16.43,55.675-15.759v-.074C430.8,154.036,410.794,145.451,397.3,137.607Z" vector-effect="non-scaling-stroke"/>
  </g></svg>