<?xml version="1.0" standalone="no"?>
<svg version="1.1" preserveAspectRatio="xMidYMid slice" viewBox="0 0 468.293 468.293" class="ng-element" data-id="027bbdac44fe40f4cc07c8caa8ff7b31" style="filter: none; overflow: visible; width: 70px; height: 70px;" xmlns="http://www.w3.org/2000/svg"><path style="fill:#3A556A;" d="M74.655,445.018H46.306V14.174C46.306,6.346,52.652,0,60.481,0h0c7.828,0,14.174,6.346,14.174,14.174&#10;&#9;V445.018z" vector-effect="non-scaling-stroke"/><path style="fill:#F6C358;" d="M46.306,26.902v252.656c19.279-8.811,31.846,0,31.846,0V26.902&#10;&#9;C78.153,26.902,65.586,18.09,46.306,26.902z" vector-effect="non-scaling-stroke"/><path style="fill:#3A556A;" d="M34.049,445.018h52.864c10.345,0,18.732,8.386,18.732,18.732v4.543H15.317v-4.543&#10;&#9;C15.317,453.404,23.703,445.018,34.049,445.018z" vector-effect="non-scaling-stroke"/><path style="fill:#FCD462;" d="M397.301,137.607c-9.076-5.276-16.898-12.318-23.974-20.073&#10;&#9;c-32.818-35.963-83.127-28.888-83.127-28.888c-49.466,6.931-83.535-13.371-101.462-28.621&#10;&#9;c-30.216-25.702-69.39-38.673-108.774-33.929c-3.007,0.362-4.89,0.698-5.309,0.838V279.87c0.419,0.14,2.302,0.477,5.309,0.838&#10;&#9;c39.384,4.744,78.558-8.227,108.774-33.93c17.927-15.249,51.997-35.552,101.462-28.62c0,0,50.309,7.074,83.127-28.888&#10;&#9;c7.077-7.754,14.899-14.796,23.974-20.072c13.493-7.844,33.498-16.43,55.675-15.759v-0.074&#10;&#9;C430.799,154.036,410.794,145.451,397.301,137.607z" vector-effect="non-scaling-stroke"/><g>
</g><g>
</g><g>
</g><g>
</g><g>
</g><g>
</g><g>
</g><g>
</g><g>
</g><g>
</g><g>
</g><g>
</g><g>
</g><g>
</g><g>
</g></svg>